<svg width="18" height="17" fill="none" xmlns="http://www.w3.org/2000/svg"><path d="m18 8.5-1.996-2.259.278-2.987-2.954-.664L11.782 0 9 1.182 6.218 0 4.672 2.582l-2.954.656.278 2.995L0 8.5l1.996 2.259-.278 2.995 2.954.664L6.218 17 9 15.81l2.782 1.182 1.546-2.583 2.954-.663-.278-2.987L18 8.5ZM6.856 11.746 4.91 9.803a.806.806 0 0 1-.177-.88.806.806 0 0 1 .177-.261l.057-.057a.831.831 0 0 1 1.162 0l1.317 1.312L11.66 5.74a.831.831 0 0 1 1.162 0l.057.056a.8.8 0 0 1 0 1.142l-4.843 4.808a.851.851 0 0 1-1.179 0Z" fill="#0047FF"/></svg>