<svg width="27" height="24" fill="none" xmlns="http://www.w3.org/2000/svg"><path d="M24.046 2.889A7.599 7.599 0 0 0 18.745.75l-.002-.001a7.646 7.646 0 0 0-3.962 1.101c-.285.172-.554.36-.81.566l-.47.378-.47-.378a7.401 7.401 0 0 0-.809-.566A7.646 7.646 0 0 0 8.26.75a7.6 7.6 0 0 0-2.914.573h-.001a7.501 7.501 0 0 0-2.388 1.565v.001a7.263 7.263 0 0 0-1.613 2.328l22.702-2.328Zm0 0a7.313 7.313 0 0 1 1.613 2.328c.393.908.594 1.87.591 2.86v.001c0 .93-.191 1.914-.584 2.934l-.001.002m-1.619-8.125 1.619 8.125M6.832 18.252a46.515 46.515 0 0 0 5.738 4.455l.03.02a.59.59 0 0 0 .01.006h.001l.012.007.74.47a.26.26 0 0 0 .274 0l.74-.47a46.618 46.618 0 0 0 5.79-4.488c1.72-1.575 3.087-3.113 4.07-4.568L6.833 18.252Zm0 0c-1.719-1.575-3.086-3.113-4.07-4.568l4.07 4.568Zm18.833-7.238c-.326.85-.806 1.75-1.427 2.67l1.427-2.67ZM.75 8.078c0-.991.2-1.953.594-2.861l-.01 5.795C.941 9.992.75 9.007.75 8.078Zm2.012 5.606c-.62-.92-1.098-1.818-1.428-2.672l1.428 2.672Z" stroke="#fff" stroke-width="1.5"/></svg>