<svg width="21" height="21" fill="none" xmlns="http://www.w3.org/2000/svg"><path d="m20.937 19.49-6.817-6.817a7.804 7.804 0 0 0 1.63-4.798c0-2.105-.822-4.08-2.307-5.568A7.817 7.817 0 0 0 7.875 0a7.828 7.828 0 0 0-5.568 2.307A7.812 7.812 0 0 0 0 7.875c0 2.103.822 4.082 2.307 5.568a7.813 7.813 0 0 0 5.568 2.307 7.81 7.81 0 0 0 4.796-1.628l6.817 6.815a.214.214 0 0 0 .304 0l1.145-1.142a.215.215 0 0 0 0-.305Zm-8.904-7.457a5.848 5.848 0 0 1-4.158 1.722 5.848 5.848 0 0 1-4.158-1.722 5.848 5.848 0 0 1-1.722-4.158c0-1.57.612-3.048 1.722-4.158a5.848 5.848 0 0 1 4.158-1.722c1.57 0 3.048.609 4.158 1.722a5.848 5.848 0 0 1 1.722 4.158c0 1.57-.612 3.048-1.722 4.158Z" fill="#fff"/></svg>