<svg width="25" height="17" viewBox="0 0 25 17" fill="none" xmlns="http://www.w3.org/2000/svg">
<path d="M23.8566 2.77476C23.5839 1.74829 22.7807 0.939865 21.7609 0.665516C19.9124 0.166992 12.5 0.166992 12.5 0.166992C12.5 0.166992 5.08767 0.166992 3.2391 0.665516C2.21927 0.939909 1.41606 1.74829 1.14344 2.77476C0.648132 4.63531 0.648132 8.51717 0.648132 8.51717C0.648132 8.51717 0.648132 12.399 1.14344 14.2596C1.41606 15.286 2.21927 16.0608 3.2391 16.3351C5.08767 16.8337 12.5 16.8337 12.5 16.8337C12.5 16.8337 19.9123 16.8337 21.7609 16.3351C22.7807 16.0608 23.5839 15.286 23.8566 14.2596C24.3519 12.399 24.3519 8.51717 24.3519 8.51717C24.3519 8.51717 24.3519 4.63531 23.8566 2.77476ZM10.0757 12.0416V4.99273L16.271 8.51725L10.0757 12.0416Z" fill="white" fill-opacity="0.5"/>
</svg>
